HIERARCHY
ROOT Hips
{
 OFFSET 0.000000 0.000000 0.000000
 CHANNELS 6 Xposition Yposition Zposition Yrotation Xrotation Zrotation
 JOINT Chest
 {
  OFFSET 0.000000 9.585900 0.002600
  CHANNELS 3 Yrotation Xrotation Zrotation
  JOINT Chest2
  {
   OFFSET 0.000000 9.601200 -0.005300
   CHANNELS 3 Yrotation Xrotation Zrotation
   JOINT Chest3
   {
    OFFSET 0.000000 9.561800 0.000000
    CHANNELS 3 Yrotation Xrotation Zrotation
    JOINT Chest4
    {
     OFFSET 0.000000 9.552100 0.000000
     CHANNELS 3 Yrotation Xrotation Zrotation
     JOINT Neck
     {
      OFFSET 0.000000 14.453000 0.000000
      CHANNELS 3 Yrotation Xrotation Zrotation
      JOINT Head
      {
       OFFSET 0.000000 8.936500 -0.011300
       CHANNELS 3 Yrotation Xrotation Zrotation
       End Site
       {
        OFFSET 0.000000 17.073600 -0.006000
       }
      }
     }
     JOINT RightCollar
     {
      OFFSET -2.921100 9.558500 0.000000
      CHANNELS 3 Yrotation Xrotation Zrotation
      JOINT RightShoulder
      {
       OFFSET -13.519700 0.000000 0.000000
       CHANNELS 3 Yrotation Xrotation Zrotation
       JOINT RightElbow
       {
        OFFSET 0.000000 -29.696600 0.000000
        CHANNELS 3 Yrotation Xrotation Zrotation
        JOINT RightWrist
        {
         OFFSET 0.000000 -24.004700 0.000000
         CHANNELS 3 Yrotation Xrotation Zrotation
         End Site
         {
          OFFSET 0.000000 -17.728500 0.000000
         }
        }
       }
      }
     }
     JOINT LeftCollar
     {
      OFFSET 2.921100 9.558500 0.000000
      CHANNELS 3 Yrotation Xrotation Zrotation
      JOINT LeftShoulder
      {
       OFFSET 13.519700 0.000000 0.000000
       CHANNELS 3 Yrotation Xrotation Zrotation
       JOINT LeftElbow
       {
        OFFSET 0.000000 -29.696600 0.000000
        CHANNELS 3 Yrotation Xrotation Zrotation
        JOINT LeftWrist
        {
         OFFSET 0.000000 -24.004700 0.000000
         CHANNELS 3 Yrotation Xrotation Zrotation
         End Site
         {
          OFFSET 0.000000 -17.728500 0.000000
         }
        }
       }
      }
     }
    }
   }
  }
 }
 JOINT RightHip
 {
  OFFSET -7.771700 -0.012900 -0.001300
  CHANNELS 3 Yrotation Xrotation Zrotation
  JOINT RightKnee
  {
   OFFSET 0.000000 -40.869800 0.001200
   CHANNELS 3 Yrotation Xrotation Zrotation
   JOINT RightAnkle
   {
    OFFSET 0.000000 -39.717900 0.002100
    CHANNELS 3 Yrotation Xrotation Zrotation
    JOINT RightToe
    {
     OFFSET 0.000000 -4.965400 11.033500
     CHANNELS 3 Yrotation Xrotation Zrotation
     End Site
     {
      OFFSET 0.000000 -1.423100 5.872300
     }
    }
   }
  }
 }
 JOINT LeftHip
 {
  OFFSET 7.771700 -0.012900 -0.001300
  CHANNELS 3 Yrotation Xrotation Zrotation
  JOINT LeftKnee
  {
   OFFSET 0.000000 -40.869800 0.001200
   CHANNELS 3 Yrotation Xrotation Zrotation
   JOINT LeftAnkle
   {
    OFFSET 0.000000 -39.717900 0.002100
    CHANNELS 3 Yrotation Xrotation Zrotation
    JOINT LeftToe
    {
     OFFSET 0.000000 -4.965400 11.033500
     CHANNELS 3 Yrotation Xrotation Zrotation
     End Site
     {
      OFFSET 0.000000 -1.423100 5.872300
     }
    }
   }
  }
 }
}
MOTION
Frames: 12
Frame Time: 0.008333
-220.376059 57.585290 -73.516711 159.760599 -8.077989 0.133703 3.559188 7.070145 0.695916 0.146952 0.333322 0.002546 0.291261 0.600699 -0.023821 3.182730 6.771049 0.020151 0.841238 17.543520 -0.817283 1.861295 -3.172328 -1.825184 1.565931 9.108535 1.505964 -1.397810 -6.649533 -11.544709 -104.277671 -86.073913 126.438043 -3.697787 3.858714 -36.489747 -5.026927 10.048449 -2.293498 15.373919 -5.252767 3.773803 82.729620 -80.447639 -108.566561 -0.708476 5.954838 15.977577 -17.926665 -63.670789 9.048071 -30.882060 73.181395 -31.118570 -3.073230 -7.618202 -2.348758 -0.362631 0.724430 -0.135106 0.095252 -66.563208 16.434230 41.796776 66.047363 34.982759 -18.257221 -11.090399 3.183449 -0.112956 -0.958592 -0.055456
-220.376041 57.584721 -73.516668 159.760693 -8.078522 0.123511 3.540411 7.059366 0.722296 0.155142 0.336983 -0.004614 0.288846 0.600387 -0.024796 3.152386 6.754525 0.038402 0.873329 17.548133 -0.844477 1.893949 -3.247394 -1.829385 1.599845 9.130956 1.476725 -1.423792 -6.655161 -11.527724 -104.337857 -86.068957 126.528966 -3.694489 3.861332 -36.489986 -4.998198 10.065351 -2.322121 15.382734 -5.242130 3.777216 82.733318 -80.436978 -108.576008 -0.726577 5.976096 15.974022 -17.930568 -63.667040 9.069375 -30.915935 73.173422 -31.154043 -3.091004 -7.622772 -2.355456 -0.350542 0.727157 -0.126224 0.065335 -66.564188 16.471530 41.792983 66.051644 34.973303 -18.262811 -11.080933 3.188930 -0.113973 -0.963122 -0.056944
-220.378108 57.583966 -73.518165 159.758439 -8.084311 0.128468 3.530701 7.055865 0.730827 0.157552 0.338243 -0.007274 0.277249 0.593892 -0.015051 3.155984 6.761129 0.029144 0.883661 17.537707 -0.850409 1.928640 -3.324772 -1.833992 1.608869 9.137173 1.467653 -1.451796 -6.671902 -11.497180 -104.322199 -86.079036 126.540331 -3.694761 3.859889 -36.486949 -4.997634 10.066501 -2.320271 15.393825 -5.229647 3.763324 82.696776 -80.444316 -108.543139 -0.725583 5.974161 15.976396 -17.897998 -63.664356 9.053531 -30.945112 73.167114 -31.194622 -3.099793 -7.627834 -2.346434 -0.347078 0.732270 -0.124475 0.075145 -66.559004 16.463484 41.817674 66.047246 34.992143 -18.268758 -11.068963 3.193790 -0.112381 -0.970592 -0.057482
-220.380586 57.582716 -73.518494 159.758278 -8.083847 0.132701 3.521433 7.046277 0.736629 0.156919 0.337868 -0.006977 0.284276 0.601499 -0.023456 3.153354 6.760199 0.030058 0.895807 17.454896 -0.821402 1.956903 -3.336468 -1.859039 1.599937 9.126086 1.479357 -1.440713 -6.659892 -11.511578 -104.538687 -86.047336 126.749367 -3.683110 3.872355 -36.477979 -5.004212 10.058693 -2.307980 15.383283 -5.214899 3.756283 82.702952 -80.446338 -108.534596 -0.749351 5.994847 15.964741 -17.862047 -63.669858 9.049651 -31.002521 73.152708 -31.281316 -3.110392 -7.621602 -2.311244 -0.350135 0.727895 -0.137294 0.082477 -66.559684 16.455558 41.815983 66.044792 34.989272 -18.273527 -11.055737 3.192647 -0.102883 -0.973971 -0.054046
-220.382444 57.581228 -73.519152 159.754557 -8.087900 0.133987 3.512295 7.039007 0.745683 0.156376 0.337691 -0.006716 0.288836 0.602673 -0.023229 3.143247 6.759408 0.037032 0.908411 17.435287 -0.828970 1.987453 -3.402118 -1.868330 1.607069 9.127927 1.469285 -1.439681 -6.656446 -11.510528 -104.668685 -86.046915 126.882485 -3.681560 3.879194 -36.473863 -5.006350 10.056191 -2.312272 15.351852 -5.204612 3.753845 82.680795 -80.450089 -108.477419 -0.744183 5.993639 15.980000 -17.848743 -63.668078 9.045992 -31.014963 73.150239 -31.301464 -3.112329 -7.624912 -2.306545 -0.351615 0.731334 -0.137875 0.087428 -66.555469 16.454657 41.813481 66.043855 34.986699 -18.278281 -11.049201 3.191950 -0.090570 -0.970223 -0.050790
-220.383662 57.579473 -73.519859 159.748510 -8.094906 0.131125 3.505983 7.032488 0.758310 0.155718 0.337509 -0.006482 0.286124 0.605001 -0.020674 3.136394 6.759505 0.043224 0.923097 17.436961 -0.846441 2.017810 -3.485849 -1.870947 1.620166 9.125570 1.460660 -1.434346 -6.653781 -11.512364 -104.695900 -86.051137 126.908389 -3.682086 3.882855 -36.471166 -5.004781 10.034343 -2.301362 15.344298 -5.176700 3.736141 82.617569 -80.458013 -108.402523 -0.730566 5.988677 15.996266 -17.839467 -63.661964 9.049041 -31.022925 73.147238 -31.316410 -3.115236 -7.625590 -2.304396 -0.352367 0.734797 -0.133263 0.089987 -66.546229 16.458967 41.809755 66.037980 34.983925 -18.270860 -11.045966 3.187908 -0.098160 -0.961032 -0.048482
-220.386474 57.577752 -73.523550 159.758798 -8.116666 0.139896 3.489129 7.047773 0.753216 0.155332 0.337388 -0.006359 0.265339 0.582859 -0.005575 3.135647 6.774322 0.038644 0.940200 17.409224 -0.849492 2.052752 -3.530551 -1.884043 1.641693 9.124475 1.458833 -1.421614 -6.664733 -11.512561 -104.404632 -86.070225 126.609591 -3.678574 3.871703 -36.475091 -4.993670 10.027457 -2.306394 15.342772 -5.160312 3.731528 82.609838 -80.462692 -108.389122 -0.733033 5.994774 16.001843 -17.805588 -63.648014 9.015496 -31.053622 73.150624 -31.363417 -3.133683 -7.637006 -2.295450 -0.351228 0.739879 -0.128776 0.097377 -66.523063 16.439231 41.816278 66.034295 34.987099 -18.282578 -11.034453 3.185466 -0.103570 -0.959973 -0.046249
-220.390699 57.575475 -73.525598 159.761374 -8.126977 0.153212 3.480917 7.051938 0.743600 0.154924 0.337239 -0.006228 0.256180 0.577130 0.001126 3.125957 6.772989 0.039240 0.956574 17.357160 -0.840428 2.086344 -3.544883 -1.904652 1.662042 9.131017 1.453593 -1.418347 -6.675656 -11.517817 -104.389974 -86.069197 126.581447 -3.678684 3.880395 -36.463320 -4.983423 10.025034 -2.312884 15.339037 -5.150883 3.730930 82.636050 -80.470660 -108.405872 -0.738579 6.001298 15.993774 -17.779609 -63.646712 8.984989 -31.067521 73.154298 -31.391000 -3.131821 -7.643214 -2.283399 -0.366117 0.738899 -0.144591 0.128035 -66.514410 16.404476 41.827425 66.033540 34.995465 -18.299113 -11.021797 3.189298 -0.109230 -0.961580 -0.046946
-220.394832 57.573077 -73.528452 159.756146 -8.142505 0.168194 3.470856 7.055701 0.738653 0.144187 0.328915 0.003603 0.266367 0.587228 -0.007070 3.091823 6.766565 0.058581 0.989627 17.335012 -0.859809 2.111062 -3.561740 -1.921404 1.704227 9.141907 1.426789 -1.415525 -6.691588 -11.527067 -104.306562 -86.073451 126.486660 -3.679707 3.881621 -36.457680 -4.947217 10.034920 -2.348621 15.321437 -5.164581 3.737274 82.690879 -80.499363 -108.460053 -0.743416 5.996301 15.988145 -17.757015 -63.644218 8.965756 -31.090787 73.161396 -31.433242 -3.133834 -7.641159 -2.283443 -0.368656 0.733244 -0.139674 0.168134 -66.500265 16.368150 41.827232 66.039547 34.996209 -18.313233 -11.016893 3.192642 -0.106912 -0.962024 -0.047782
-220.399007 57.570643 -73.532346 159.754095 -8.164078 0.185382 3.448359 7.056845 0.742874 0.162761 0.347917 -0.015843 0.258775 0.580287 0.001264 3.090777 6.773970 0.054996 0.996832 17.323225 -0.861922 2.137710 -3.618450 -1.927870 1.716086 9.127659 1.435191 -1.411359 -6.700746 -11.546176 -104.388983 -86.077205 126.557723 -3.664536 3.884340 -36.441196 -4.952509 10.017672 -2.349258 15.323284 -5.163464 3.742461 82.682050 -80.505994 -108.452217 -0.746504 5.996504 15.983646 -17.723018 -63.633703 8.927481 -31.104903 73.168271 -31.459501 -3.139889 -7.648571 -2.283389 -0.364162 0.736921 -0.133972 0.206035 -66.479101 16.323079 41.836751 66.042794 35.006949 -18.306606 -11.017944 3.195077 -0.114312 -0.963697 -0.050963
-220.400621 57.568229 -73.536244 159.749042 -8.191144 0.190010 3.445207 7.075465 0.750714 0.160215 0.346026 -0.017375 0.260247 0.583134 0.003540 3.088187 6.780054 0.050178 1.003628 17.311674 -0.863819 2.167349 -3.690739 -1.932161 1.726019 9.116467 1.441945 -1.408869 -6.700411 -11.562118 -104.443587 -86.085227 126.597631 -3.672828 3.892369 -36.426972 -4.953395 9.992480 -2.351708 15.304263 -5.185410 3.765269 82.523513 -80.498924 -108.279616 -0.747371 5.994187 15.980583 -17.713095 -63.614118 8.916395 -31.110239 73.176254 -31.474754 -3.146263 -7.645834 -2.288681 -0.364654 0.728878 -0.133572 0.218574 -66.452535 16.311825 41.841360 66.047789 35.012489 -18.281488 -11.022835 3.196753 -0.096939 -0.954508 -0.049633
-220.402275 57.565620 -73.538920 159.752878 -8.211446 0.193594 3.433398 7.088088 0.758263 0.160321 0.345442 -0.016139 0.263459 0.588451 -0.003015 3.059899 6.778416 0.080042 1.026221 17.291012 -0.890006 2.175228 -3.697295 -1.943609 1.753165 9.106878 1.420924 -1.408305 -6.718196 -11.582504 -104.248374 -86.099935 126.386031 -3.670949 3.900958 -36.405797 -4.938760 9.971979 -2.384386 15.299387 -5.188488 3.772936 82.432271 -80.496433 -108.180494 -0.746448 5.991444 15.978937 -17.718309 -63.600885 8.911264 -31.151942 73.180059 -31.525716 -3.135959 -7.645715 -2.291192 -0.358219 0.722664 -0.140687 0.216228 -66.434102 16.309099 41.842403 66.053506 35.013787 -18.279626 -11.021553 3.199185 -0.098352 -0.949985 -0.051916
